<?xml version="1.0" encoding="utf-8"?>
<!-- Generator: Adobe Illustrator 22.0.1, SVG Export Plug-In . SVG Version: 6.00 Build 0)  -->
<svg version="1.1" id="Capa_1" xmlns="http://www.w3.org/2000/svg" xmlns:xlink="http://www.w3.org/1999/xlink" x="0px" y="0px"
	 viewBox="0 0 60 60" style="enable-background:new 0 0 60 60;" xml:space="preserve">
<style type="text/css">
	.st0{fill:#6844FC;}
</style>
<title>logo-web</title>
<g>
	<path class="st0" d="M18.7,10l9.2-9.2c1.2-1.2,3-1.2,4.2,0l9.2,9.2c1.2,1.2,1.2,3,0,4.2l-9.2,9.2c-1.2,1.2-3,1.2-4.2,0l-9.2-9.2
		C17.6,13.1,17.6,11.2,18.7,10z"/>
	<path class="st0" d="M14.3,18.7l11.4,11.4c2.4,2.4,6.4,2.4,8.8,0c0,0,0,0,0,0l11.3-11.4c1.2-1.1,3-1.1,4.2,0l9.2,9.2
		c1.1,1.2,1.1,3,0,4.2L50,41.3c-1.2,1.1-3,1.1-4.2,0L41,36.6c-1.2-1.1-3-1.1-4.2,0l-0.3,0.3c-1.1,1.2-1.1,3,0,4.2l4.7,4.7
		c1.1,1.2,1.1,3,0,4.2l-9.2,9.2c-1.2,1.1-3,1.1-4.2,0L18.7,50c-1.1-1.2-1.1-3,0-4.2l4.7-4.7c1.1-1.2,1.1-3,0-4.2l-0.3-0.3
		c-1.2-1.1-3-1.1-4.2,0l-4.7,4.7c-1.2,1.1-3,1.1-4.2,0l-9.2-9.2c-1.1-1.2-1.1-3,0-4.2l9.2-9.2C11.2,17.6,13.1,17.6,14.3,18.7z"/>
</g>
</svg>
